<svg width="256" height="256" viewBox="0 0 256 256" fill="none" xmlns="http://www.w3.org/2000/svg">
<rect width="256" height="256" fill="#020A14"/>
<path fill-rule="evenodd" clip-rule="evenodd" d="M124.059 157.565C130.934 149.187 134.692 138.684 134.692 127.846H120.278C120.278 145.758 105.757 160.278 87.8459 160.278C69.9343 160.278 55.414 145.758 55.414 127.846C55.414 109.934 69.9343 95.414 87.8459 95.414C96.8018 95.414 104.91 99.0442 110.779 104.913L120.971 94.721C113.308 87.0573 103.224 82.288 92.4378 81.2256C81.6519 80.1633 70.8313 82.8737 61.8198 88.8951C52.8083 94.9164 46.1633 103.876 43.0172 114.247C39.8711 124.619 40.4184 135.76 44.566 145.773C48.7135 155.786 56.2047 164.052 65.763 169.161C75.3213 174.27 86.3555 175.906 96.9853 173.792C107.615 171.678 117.183 165.943 124.059 157.565Z" fill="white"/>
<path fill-rule="evenodd" clip-rule="evenodd" d="M168.154 174.692C194.026 174.692 215 153.718 215 127.846C215 101.974 194.026 81 168.154 81C142.281 81 121.308 101.974 121.308 127.846C121.308 153.718 142.281 174.692 168.154 174.692ZM168.154 160.278C186.065 160.278 200.586 145.758 200.586 127.846C200.586 109.934 186.065 95.414 168.154 95.414C150.242 95.414 135.722 109.934 135.722 127.846C135.722 145.758 150.242 160.278 168.154 160.278Z" fill="white"/>
</svg>
